<svg width="24" height="31" viewBox="0 0 24 31" fill="none" xmlns="http://www.w3.org/2000/svg">
<path d="M12.8213 0.640015C6.42769 0.640015 2.76004 4.27496 2.76004 10.6238C2.76004 10.8926 2.79244 11.2517 2.85004 11.6613C2.88204 11.8661 2.91414 12.0773 2.95254 12.3013C2.97174 12.4165 2.99709 12.5311 3.01629 12.6463C3.06109 12.8703 3.10524 13.0946 3.15004 13.325C3.21404 13.6066 3.27214 13.8812 3.34254 14.15C3.66894 14.0924 3.92489 14.08 4.09129 14.08C4.30249 14.08 4.48114 14.0991 4.64754 14.1375C4.82674 14.1759 4.98674 14.2342 5.12754 14.3238C5.57554 14.599 5.77474 15.014 5.94754 15.3788L6.00504 15.5013C6.31864 14.8357 6.49124 14.0032 6.60004 13.44C7.00324 11.4432 9.19844 10.88 12.36 10.88C15.336 10.88 17.0066 9.50456 17.7938 8.56376C18.421 9.55576 19.4 11.4431 19.4 13.4463C19.4128 14.5215 19.8224 16.2949 21.2688 16.4613C21.5248 16.6533 22.0437 17.1515 21.9413 17.9963C21.7173 19.9163 20.3151 20.4483 20.2575 20.4675C20.0207 20.5507 19.8544 20.7618 19.8288 21.005C19.6816 22.381 18.2223 25.2988 16.0975 26.95V26.9563C16.1615 27.1547 16.1875 27.3734 16.1875 27.6038C16.1939 27.847 16.2 28.1148 16.2 28.39V28.4413C18.92 26.7453 20.6738 23.3532 21.045 21.51C21.6914 21.1644 22.9718 20.2236 23.215 18.15C23.3686 16.8636 22.7086 16.0262 22.235 15.6038C22.2414 15.5846 22.2486 15.558 22.255 15.5388C22.319 15.334 22.3762 15.1297 22.4338 14.9313C22.4594 14.8481 22.4846 14.7582 22.5038 14.675C22.5614 14.451 22.6188 14.234 22.67 14.01C22.7276 13.7796 22.7854 13.5429 22.8238 13.3125C22.8494 13.2293 22.8622 13.152 22.875 13.0688C22.9198 12.8704 22.9518 12.672 22.9838 12.48C23.0414 12.1472 23.093 11.8214 23.125 11.495C23.1442 11.3286 23.1635 11.1675 23.1763 11.0075C23.1955 10.7835 23.2149 10.5601 23.2213 10.3425C23.2341 10.0929 23.24 9.84321 23.24 9.60001C23.24 9.36801 23.2309 9.13453 23.2125 8.90126C23.0842 7.26843 22.5033 5.64201 21.4225 4.55001C21.3649 4.48601 21.3003 4.42261 21.2363 4.36501C21.1339 4.26901 21.019 4.17961 20.9038 4.09001C20.8014 4.01321 20.699 3.94276 20.5838 3.87876C20.5262 3.83396 20.4629 3.79576 20.3925 3.76376C20.2901 3.70616 20.1813 3.64856 20.0725 3.60376C19.9317 3.53976 19.7774 3.48121 19.6238 3.43001C19.451 3.37241 19.2658 3.32201 19.0738 3.29001C18.8882 3.25161 18.6898 3.22531 18.485 3.21251C17.8898 2.33571 16.2965 0.640015 12.8213 0.640015ZM4.09129 15.36C3.96969 15.36 3.82254 15.3669 3.66254 15.3925C3.38094 15.4309 3.04219 15.507 2.68379 15.635C1.81339 15.9486 1.01884 17.4592 0.910041 18.1888C0.814041 18.8352 0.775941 19.6612 1.05754 20.57C1.23034 21.114 1.46104 21.8176 1.84504 22.72C3.46424 26.5152 7.23419 28.9855 7.48379 29.1775C7.73339 29.3631 9.50574 30.72 11.3425 30.72C12.4689 30.72 13.243 30.355 13.755 29.9838C14.0814 29.7598 14.3117 29.5294 14.4525 29.395C14.8237 29.0494 14.92 28.6396 14.92 28.39C14.92 28.1468 14.9139 27.91 14.9075 27.6988V27.6675C14.8947 27.4307 14.9907 27.1235 14.2675 26.8163C13.5187 26.5027 11.6819 25.7473 11.4963 25.6513C11.3811 25.5937 11.2594 25.5488 11.125 25.5488C11.0354 25.5488 10.9398 25.5676 10.8438 25.6188C10.5942 25.7468 10.4339 25.8043 10.2163 25.9963C9.99869 26.1883 9.73019 26.3935 9.56379 26.5663L9.49879 26.63C9.38999 26.7324 9.26879 26.8288 9.10879 26.8288C9.01919 26.8288 8.92289 26.7967 8.80129 26.7263C8.43649 26.5151 7.25924 25.7857 6.28004 24.6913C6.25444 24.6721 6.23549 24.6467 6.21629 24.6275C4.94909 23.1875 4.55189 21.9651 4.36629 21.5875C4.25749 21.3635 4.22539 21.1971 4.26379 21.0563V21.05C4.28299 20.986 4.31509 20.9214 4.36629 20.8638C4.39829 20.8318 4.42414 20.7995 4.46254 20.7675C4.59054 20.6523 4.88424 20.3971 5.18504 20.1475C5.46664 19.9171 5.74209 19.6929 5.92129 19.5713C5.99809 19.5201 6.06289 19.4689 6.10129 19.4113C6.13329 19.3729 6.15209 19.3409 6.17129 19.3025C6.21609 19.1873 6.20954 19.0719 6.17754 18.9375C6.16474 18.8671 6.13954 18.7968 6.10754 18.72C6.01154 18.4448 5.42909 17.2411 5.09629 16.5563C5.03869 16.4347 4.98719 16.3268 4.94879 16.25C4.92959 16.2052 4.91034 16.1669 4.89754 16.1413C4.70554 15.7637 4.61614 15.5071 4.46254 15.4175C4.44974 15.4111 4.43064 15.3989 4.40504 15.3925C4.36024 15.3797 4.29559 15.3727 4.21879 15.3663C4.18039 15.3599 4.13609 15.36 4.09129 15.36ZM9.48004 16.64C8.94884 16.64 8.52004 17.0688 8.52004 17.6C8.52004 18.1312 8.94884 18.56 9.48004 18.56C10.0112 18.56 10.44 18.1312 10.44 17.6C10.44 17.0688 10.0112 16.64 9.48004 16.64ZM16.52 16.64C15.9888 16.64 15.56 17.0688 15.56 17.6C15.56 18.1312 15.9888 18.56 16.52 18.56C17.0512 18.56 17.48 18.1312 17.48 17.6C17.48 17.0688 17.0512 16.64 16.52 16.64Z" fill="#EF7F1A"/>
</svg>
