<svg width="18" height="24" viewBox="0 0 18 24" fill="none" xmlns="http://www.w3.org/2000/svg">
<path d="M11.3212 24.0094C11.1225 24.0094 10.9387 23.8875 10.8656 23.6981C10.7812 23.4863 10.8562 23.2444 11.0456 23.115C12.3975 22.1925 13.7718 20.0756 13.7906 17.4244C13.8037 15.5344 13.1437 12.6825 10.0912 9.45563C10.2468 13.4756 8.55746 16.8638 8.47684 17.0213C8.37746 17.22 8.15809 17.325 7.94246 17.28C7.72496 17.235 7.56559 17.0513 7.55059 16.8319C7.55059 16.8131 7.42871 15.2325 6.36559 13.9163C6.10871 14.7563 5.82371 15.4256 5.56684 16.0331C5.07559 17.1863 4.68934 18.0975 4.68934 19.6538C4.68934 20.8425 5.65309 22.2394 6.57934 22.9763C6.72934 23.0606 6.83059 23.22 6.83059 23.4056C6.83059 23.6756 6.61121 23.895 6.33934 23.895C6.33559 23.895 6.33371 23.895 6.32996 23.895C6.27746 23.895 6.22309 23.8856 6.17059 23.8688C2.41684 22.5731 0.350586 19.9481 0.350586 16.4775C0.350586 13.5263 1.70246 11.1469 3.13309 8.62688C4.42121 6.35813 5.88184 3.7875 6.59996 0.378751C6.63746 0.208126 6.76309 0.0675006 6.92996 0.0131256C7.09871 -0.0412495 7.28246 0.00187556 7.41184 0.121875C14.2031 6.39375 17.6493 10.6388 17.6493 16.4213C17.6493 20.2256 14.9606 23.4863 11.3925 24.0056C11.3681 24.0094 11.3437 24.0094 11.3212 24.0094Z" fill="black"/>
</svg>
