<svg width="24" height="24" viewBox="0 0 24 24" fill="none" xmlns="http://www.w3.org/2000/svg">
<path d="M6.24 0C5.44608 0 4.8 0.64608 4.8 1.44V11.52H14.6541L10.2469 7.11188C10.0592 6.92419 10.0592 6.6208 10.2469 6.43313C10.4346 6.24544 10.7379 6.24544 10.9256 6.43313L16.4916 12L10.9247 17.5669C10.8311 17.6605 10.7082 17.7075 10.5853 17.7075C10.4624 17.7075 10.3395 17.6605 10.2459 17.5669C10.0583 17.3792 10.0583 17.0758 10.2459 16.8881L14.6541 12.48H4.8V22.56C4.8 23.3539 5.44608 24 6.24 24H22.56C23.3539 24 24 23.3539 24 22.56V1.44C24 0.64608 23.3539 0 22.56 0H6.24ZM4.8 12.48V11.52H0.48C0.21504 11.52 0 11.735 0 12C0 12.265 0.21504 12.48 0.48 12.48H4.8Z" fill="#F28B00"/>
</svg>
